<svg width="393" height="422" viewBox="0 0 393 422" fill="none" xmlns="http://www.w3.org/2000/svg">
<path d="M392.873 0H0V361.315C0 361.315 42.5439 394.491 85.3342 392.596C121.967 390.973 154.404 368.497 190.993 370.758C229.586 373.144 266.929 416.523 305.277 421.015C351.11 426.385 392.873 390.395 392.873 390.395V0Z" fill="#92E5A2"/>
<path d="M393 0H0.126709V352.294C0.126709 352.294 49.5602 382.496 92.3505 380.648C128.983 379.065 162.459 360.061 199.047 362.266C237.641 364.592 266.117 401.471 304.465 405.851C350.297 411.087 393 380.648 393 380.648V0Z" fill="url(#paint0_radial_303_2)"/>
<path d="M0.607239 377.846C0.607239 377.846 41.0938 395.994 72.3463 396.147C112.209 396.341 133.516 362.192 173.367 363.205C219.377 364.375 232.153 413.175 278.047 416.643C325.782 420.251 393.708 366.133 393.708 366.133" stroke="black" stroke-linejoin="bevel"/>
<defs>
<radialGradient id="paint0_radial_303_2" cx="0" cy="0" r="1" gradientUnits="userSpaceOnUse" gradientTransform="translate(196.563 203.228) rotate(90) scale(203.228 196.437)">
<stop stop-color="#59B86B"/>
<stop offset="1" stop-color="#6DC47E"/>
</radialGradient>
</defs>
</svg>
