<svg width="391" height="113" viewBox="0 0 391 113" fill="none" xmlns="http://www.w3.org/2000/svg">
<path d="M0 113.078L392.873 113.078L392.873 19.5995C392.873 19.5995 350.329 11.0162 307.539 11.5067C270.907 11.9265 238.469 17.7415 201.881 17.1564C163.287 16.5392 125.944 5.31634 87.5959 4.154C41.7636 2.7648 0 12.076 0 12.076L0 113.078Z" fill="#92E5A2"/>
<path d="M0.126709 112.792L393 112.792L393 26.8509C393 26.8509 362.335 14.2072 319.545 14.6854C282.912 15.0948 246.036 27.4214 209.447 26.8509C170.854 26.2491 126.14 11.5608 87.7921 10.4274C41.9598 9.07294 0.126709 19.0676 0.126709 19.0676L0.126709 112.792Z" fill="#6DC47E"/>
<path d="M1.13025 7.5443C1.13025 7.5443 43.8355 0.727459 71.3911 1.00845C123.199 1.53676 149.482 27.871 201.292 27.969C244.985 28.0517 268.115 4.77139 311.585 9.17832C343.815 12.4457 390.833 33.6879 390.833 33.6879" stroke="black" stroke-linejoin="bevel"/>
</svg>
