<svg width="55" height="39" viewBox="0 0 55 39" fill="none" xmlns="http://www.w3.org/2000/svg">
<path d="M1.00189 35V10.4418C1.00189 8.78496 2.34504 7.44182 4.00189 7.44182H14.1961C15.1526 7.44182 16.0517 6.98575 16.6167 6.21403L18.9833 2.98163C19.5483 2.20991 20.4474 1.75385 21.4039 1.75385H33.1629C34.131 1.75385 35.0395 2.22095 35.6028 3.00822L37.8774 6.18744C38.4407 6.97471 39.3492 7.44182 40.3172 7.44182H50.6282C52.2851 7.44182 53.6282 8.78496 53.6282 10.4418V35C53.6282 36.6569 52.2851 38 50.6282 38H4.00189C2.34504 38 1.00189 36.6569 1.00189 35Z" fill="white" stroke="#404040" stroke-width="2"/>
<path d="M37.4666 23.3494C37.4666 28.6191 32.9678 32.9729 27.315 32.9729C21.6622 32.9729 17.1635 28.6191 17.1635 23.3494C17.1635 18.0796 21.6622 13.7259 27.315 13.7259C32.9678 13.7259 37.4666 18.0796 37.4666 23.3494Z" fill="#FEB762" stroke="#404040" stroke-width="2"/>
<rect x="22.8951" y="5.67252" width="8.83982" height="2.42903" rx="1.21452" fill="#FEB762" stroke="#404040" stroke-width="2"/>
</svg>
