<svg width="55" height="56" viewBox="0 0 55 56" fill="none" xmlns="http://www.w3.org/2000/svg">
<path d="M7.86786 51.7934V24.0546L10.4045 26.7257L14.0284 24.0546L17.169 26.7257L20.4304 24.0546L23.9335 26.7257L26.5909 24.0546L29.49 26.7257L32.993 24.0546L42.1734 2.78813C42.1734 2.78813 44.8309 0.117009 49.5418 1.45257C54.2528 2.78813 53.528 6.69214 53.528 6.69214L46.4662 24.5682L47.4883 24.0546V51.0742C47.4883 51.0742 47.446 52.9085 46.6428 53.7454C45.7341 54.6922 43.2605 54.9782 43.2605 54.9782H36.2545H12.6996C12.6996 54.9782 10.1528 55.1789 9.0758 54.3618C8.12792 53.6427 7.86786 51.7934 7.86786 51.7934Z" fill="white"/>
<path d="M36.2545 26.7257L39.3951 24.5682L42.1734 26.7257L46.4662 24.5682M36.2545 26.7257L32.993 24.0546M36.2545 26.7257V54.9782M32.993 24.0546L29.49 26.7257L26.5909 24.0546L23.9335 26.7257L20.4304 24.0546L17.169 26.7257L14.0284 24.0546L10.4045 26.7257L7.86786 24.0546V51.7934C7.86786 51.7934 8.12792 53.6427 9.0758 54.3618C10.1528 55.1789 12.6996 54.9782 12.6996 54.9782H36.2545M32.993 24.0546L42.1734 2.78813C42.1734 2.78813 44.8309 0.117009 49.5418 1.45257C54.2528 2.78813 53.528 6.69214 53.528 6.69214L46.4662 24.5682M36.2545 54.9782H43.2605C43.2605 54.9782 45.7341 54.6922 46.6428 53.7454C47.446 52.9085 47.4883 51.0743 47.4883 51.0743V24.0546L46.4662 24.5682M39.3951 15.7329L42.1734 21.5889" stroke="#404040" stroke-width="2"/>
<path d="M43.623 9.87698L46.0389 15.4248" stroke="#404040" stroke-width="2"/>
<path d="M15.2365 24.7738C15.2365 24.7738 15.867 23.4173 17.1692 22.2077V12.0345L22.9673 7.41136V3.19919H34.322V7.41136L38.5498 11.1099L33.0056 24.0897L29.7318 26.5203L28.8862 25.493L26.5933 24.0897L23.9038 26.5203L20.3421 24.0897L17.1692 26.8156L15.2365 24.7738Z" fill="#768BD5"/>
<path d="M28.8862 25.493C28.8862 25.493 26.5911 20.3561 21.6386 20.3561C19.6996 20.3561 18.217 21.2344 17.1692 22.2077M28.8862 25.493L26.5933 24.0897L23.9038 26.5203L20.3421 24.0897L17.1692 26.8156L15.2365 24.7738C15.2365 24.7738 15.867 23.4173 17.1692 22.2077M28.8862 25.493L29.7318 26.5203M29.7318 26.5203V12.0345M29.7318 26.5203L33.0056 24.0897L38.5498 11.1099L34.322 7.41136M29.7318 12.0345H17.1692M29.7318 12.0345L34.322 7.41136M17.1692 12.0345V22.2077M17.1692 12.0345L22.9673 7.41136M22.9673 7.41136H34.322M22.9673 7.41136V3.19919H34.322V7.41136" stroke="#404040" stroke-width="2"/>
<path d="M12.0958 16.2469C12.5789 17.0687 16.686 22.9248 16.686 22.9248L19.0362 25.2628L17.3493 27.0282L14.0539 24.1251L10.3663 26.5966L7.98876 24.4658C7.98876 24.4658 4.26705 21.8039 4.36494 19.5345C4.42467 18.1496 3.88179 17.788 5.93526 16.2469C7.98874 14.7058 11.6126 15.4251 12.0958 16.2469Z" fill="white" stroke="#404040" stroke-width="2"/>
<path d="M6.66013 22.4108L10.0424 20.5616" stroke="#404040" stroke-width="2"/>
<path d="M9.3175 25.2874L11.2502 23.8492" stroke="#404040" stroke-width="2"/>
<path d="M6.05606 16.2465L1.2243 12.6508" stroke="#404040" stroke-width="2"/>
<path d="M6.41849 16.3495L4.60657 10.9045" stroke="#404040" stroke-width="2"/>
<path d="M10.767 13.7812V15.5733L11.6067 15.8233L12.3373 16.4853L17.0483 22.6513V12.1373L22.9388 7.4115V4.84307C22.9388 4.84307 21.3795 4.68363 20.5514 4.84307C18.7897 5.18222 17.0483 7.4115 17.0483 7.4115V3.40477C17.0483 3.40477 16.9275 1.86369 14.6324 1.86371C12.3373 1.86373 12.3373 2.78832 12.3373 2.78832V6.48683L9.1967 4.32937C9.1967 4.32937 8.59275 3.19932 7.02239 4.84307C5.45204 6.48683 6.29763 7.00053 6.29763 7.00053L12.3373 10.4936V12.1373L7.74717 10.4936C7.74717 10.4936 7.02238 10.4936 6.29763 11.3155C5.57288 12.1374 7.02239 12.7539 7.02239 12.7539L10.767 13.7812Z" fill="white" stroke="#404040" stroke-width="2"/>
</svg>
