<svg width="192" height="178" viewBox="0 0 192 178" fill="none" xmlns="http://www.w3.org/2000/svg">
<path d="M3.59155 116.496H187.669" stroke="black" stroke-width="2"/>
<path d="M122.058 15.3338L95.6281 9.40292L83.0861 70.7929L109.629 78.0014L122.058 15.3338Z" fill="#FEEEDA" stroke="black" stroke-width="2"/>
<path d="M121.247 20.3048L94.8597 14.215L92.0343 28.2416L118.213 34.1448L121.247 20.3048Z" fill="#FEB762" stroke="black" stroke-width="2"/>
<path d="M86.9216 23.0301C81.3412 21.6114 72.1775 23.0301 72.1775 23.0301V47.3312H97.4515C97.4515 47.3312 98.9701 38.431 97.4515 33.0746C96.6174 30.1327 96.4217 28.0594 94.2114 25.9463C91.995 23.8275 89.8933 23.7856 86.9216 23.0301Z" fill="#EA8E38" stroke="black" stroke-width="2"/>
<path d="M57.4559 13.2389C57.4559 13.2389 54.6635 4.22421 64.6211 2.5916C74.5788 0.958998 76.1417 10.0713 76.1417 10.0713L76.5181 12.2662L83.4236 52.5391L64.7378 55.7066L57.4559 13.2389Z" fill="#FCDCB2"/>
<path d="M69.58 20.2215L76.5181 12.2662M76.5181 12.2662L83.4236 52.5391L64.7378 55.7066L57.4559 13.2389C57.4559 13.2389 54.6635 4.22421 64.6211 2.5916C74.5788 0.958998 76.1417 10.0713 76.1417 10.0713L76.5181 12.2662Z" stroke="black" stroke-width="2"/>
<path d="M71.6505 28.9411L78.2879 22.2782" stroke="black" stroke-width="2"/>
<path d="M73.1808 38.421L79.6443 31.3099" stroke="black" stroke-width="2"/>
<path d="M88.5297 30.5697C88.5666 32.013 90.0766 32.7108 90.0766 32.7108H99.8294C99.8294 32.7108 101.606 32.3573 101.606 30.5697C101.606 28.9062 99.8294 28.3097 99.8294 28.3097H90.0766C90.0766 28.3097 88.4861 28.8648 88.5297 30.5697Z" fill="#768BD5" stroke="black" stroke-width="2"/>
<path d="M88.6797 35.63C88.8828 34.3815 90.1132 32.7255 90.1132 32.7255H99.4696C99.4696 32.7255 101.033 33.8803 101.214 34.9782C101.635 37.5246 101.214 46.9166 101.214 46.9166H88.6797C88.6797 46.9166 88.4507 37.0377 88.6797 35.63Z" fill="#FD2D2D" stroke="black" stroke-width="2"/>
<path d="M56.9822 41.3807V65.5089V116.617H120.076V41.3807L115.002 38.3097L110.59 41.3807L106.84 38.3097L101.766 41.3807L98.4567 38.3097L94.0446 41.3807L90.9561 38.3097L86.5439 41.3807L82.1317 38.3097L78.3814 41.3807L75.0723 38.3097L71.5426 41.3807L67.7922 38.3097L64.4831 41.3807L60.7328 38.3097L56.9822 41.3807Z" fill="#FEB762" stroke="black" stroke-width="2"/>
<path d="M118.879 65.5221L88.5779 115.382H118.879V65.5221Z" fill="#E0A75D"/>
<path d="M48.0896 81.6798C48.0896 81.6833 48.0895 81.6959 48.0785 81.7231C48.0667 81.7526 48.0405 81.8025 47.9847 81.8713C47.8683 82.0147 47.6561 82.1996 47.3075 82.4075C46.6088 82.8242 45.5312 83.2344 44.1118 83.5924C41.2883 84.3046 37.3343 84.7559 32.9294 84.7559C28.5246 84.7559 24.5706 84.3046 21.7471 83.5924C20.3276 83.2344 19.2501 82.8242 18.5514 82.4075C18.2027 82.1996 17.9905 82.0147 17.8742 81.8713C17.8184 81.8025 17.7922 81.7526 17.7804 81.7231C17.7694 81.6959 17.7693 81.6833 17.7693 81.6798C17.7693 81.6764 17.7694 81.6638 17.7804 81.6366C17.7922 81.6071 17.8184 81.5572 17.8742 81.4884C17.9905 81.3449 18.2027 81.16 18.5514 80.9521C19.2501 80.5355 20.3276 80.1253 21.7471 79.7672C24.5706 79.0551 28.5246 78.6038 32.9294 78.6038C37.3343 78.6038 41.2883 79.0551 44.1118 79.7672C45.5312 80.1253 46.6088 80.5355 47.3075 80.9521C47.6561 81.16 47.8683 81.3449 47.9847 81.4884C48.0405 81.5572 48.0667 81.6071 48.0785 81.6366C48.0895 81.6638 48.0896 81.6764 48.0896 81.6798Z" fill="#8B8B8B" stroke="black" stroke-width="2"/>
<path d="M18.3943 113.252L17.7693 81.3965C17.7693 81.3965 21.8926 84.7694 34.01 84.7694C45.2659 84.7694 48.2511 81.3965 48.2511 81.3965L49.0006 113.252C49.0006 113.252 45.0037 116 34.01 116C19.8938 116 18.3943 113.252 18.3943 113.252Z" fill="#9B9B9B" stroke="black" stroke-width="2" stroke-linejoin="bevel"/>
<path d="M18.0212 106.386C18.0212 106.386 21.6427 109.259 33.6352 109.259C45.6277 109.259 49.001 106.386 49.001 106.386" stroke="black" stroke-width="2"/>
<path d="M18.0212 89.1005C18.0212 89.1005 21.6427 91.9737 33.6352 91.9737C45.6277 91.9737 49.001 89.1003 49.001 89.1003" stroke="black" stroke-width="2"/>
<path d="M18.2498 106.554V89.3689C18.2498 89.3689 22.9976 92.1491 34.5306 91.8562C45.3915 91.5804 48.4367 89.3689 48.4367 89.3689L49.002 106.554C49.002 106.554 45.4972 109.38 34.5306 109.38C21.642 109.38 18.2498 106.554 18.2498 106.554Z" fill="#FEEEDA" stroke="black" stroke-width="2" stroke-linejoin="bevel"/>
<path d="M38.7068 100.386C38.7068 103.135 36.4449 105.386 33.6267 105.386C30.8085 105.386 28.5466 103.135 28.5466 100.386C28.5466 97.6366 30.8085 95.3855 33.6267 95.3855C36.4449 95.3855 38.7068 97.6366 38.7068 100.386Z" fill="#FD2D2D" stroke="black" stroke-width="2"/>
<path d="M48.8472 90.0158C51.5229 88.9032 55.6863 89.7357 57.6249 90.2291C58.3141 90.4046 59.0412 90.3749 59.7117 90.1446C61.5155 89.5249 65.3132 88.4417 67.9669 89.2239C75.6296 91.4827 70.521 107.886 69.004 111.149C67.4871 114.412 66.0848 115.657 63.3852 115.45C62.5282 115.384 61.5481 115.171 60.8341 114.99C60.1788 114.825 59.4884 114.847 58.8476 115.055C58.0392 115.318 56.8701 115.654 55.8873 115.761C53.2003 116.052 51.7517 114.616 49.8843 111.941C48.0169 109.266 41.4899 93.0752 48.8472 90.0158Z" fill="#FD2D2D" stroke="black" stroke-width="2"/>
<path d="M60.75 84.4366C59.4827 86.2448 58.9544 87.6926 58.2135 89.9195C58.1318 90.1651 58.275 90.4305 58.5259 90.4977C58.6101 90.5202 58.6988 90.5179 58.7814 90.491L58.9272 90.4436C59.1661 90.3659 59.3643 90.1968 59.4841 89.9762C60.5664 87.9818 61.5822 86.7901 63.1583 85.3081C63.6905 84.8078 63.6747 83.8992 62.9951 83.6216C62.1725 83.2856 61.2574 83.7126 60.75 84.4366Z" fill="#8E6642" stroke="black" stroke-width="2"/>
<path d="M56.8246 85.2638C57.6291 85.6104 58.4267 86.3998 58.8535 86.8679C59.0538 87.0875 59.0889 87.4048 58.959 87.6704C58.8279 87.9386 58.5525 88.1053 58.2538 88.083C57.6158 88.0353 56.4952 87.9097 55.7562 87.5911C55.6678 87.553 55.5802 87.5088 55.4938 87.4595C53.9861 86.5993 55.231 84.5771 56.8246 85.2638Z" fill="#39DA51" stroke="black" stroke-width="2"/>
<path d="M128.187 79.152C128.271 82.3002 131.719 83.8223 131.719 83.8223H153.988C153.988 83.8223 158.045 83.0512 158.045 79.152C158.045 75.5235 153.988 74.2224 153.988 74.2224H131.719C131.719 74.2224 128.087 75.4333 128.187 79.152Z" fill="#768BD5" stroke="black" stroke-width="2"/>
<path d="M128.529 90.1898C128.993 87.4665 131.803 83.8543 131.803 83.8543H153.167C153.167 83.8543 156.737 86.3733 157.151 88.7682C158.111 94.3224 157.151 114.809 157.151 114.809H128.529C128.529 114.809 128.006 93.2604 128.529 90.1898Z" fill="#FD2D2D" stroke="black" stroke-width="2"/>
<path d="M105.773 116.123C105.773 116.123 102.853 115.015 102.538 113.654C102.165 112.041 104.762 109.403 104.762 109.403L115.617 106.299L134.363 100.293C134.363 100.293 137.269 101.005 138.564 102.266C139.806 103.476 140.614 104.422 140.658 106.258C140.693 107.697 140.179 108.535 139.52 109.876C138.664 111.619 136.49 113.845 136.49 113.845L105.773 116.123Z" fill="#FC9330"/>
<path d="M115.617 106.299L134.363 100.293C134.363 100.293 137.269 101.005 138.564 102.266C139.806 103.476 140.614 104.422 140.658 106.258C140.693 107.697 140.179 108.535 139.52 109.876C138.664 111.619 136.49 113.845 136.49 113.845L105.773 116.123C105.773 116.123 102.853 115.015 102.538 113.654C102.165 112.041 104.762 109.403 104.762 109.403L115.617 106.299ZM115.617 106.299L115.696 109.829" stroke="black" stroke-width="2"/>
<path d="M131.558 101.286L132.025 106.876" stroke="black" stroke-width="2"/>
<path d="M124.996 109.715L125.575 114.824" stroke="black" stroke-width="2"/>
<path d="M139.028 106.729L147.239 101.447" stroke="black" stroke-width="2"/>
<path d="M139.251 106.437L149.475 104.54" stroke="black" stroke-width="2"/>
<path d="M147.441 108.3L138.723 106.034" stroke="black" stroke-width="2"/>
<path d="M146.162 100.394L150.094 104.551C150.094 104.551 146.797 108.295 147.16 110.858C147.439 112.818 148.262 114.016 149.966 114.847C151.876 115.779 153.701 115.621 155.606 114.302C157.786 112.793 158.297 108.04 158.297 108.04C158.297 108.04 161.542 104.929 161.424 102.574C161.293 99.9483 156.964 98.0147 156.964 98.0147C156.964 98.0147 156.168 94.2739 154.34 93.2399C152.255 92.0598 149.96 92.1978 147.97 93.9206C145.965 95.6567 146.162 100.394 146.162 100.394Z" fill="#118C24" stroke="black" stroke-width="2"/>
<path d="M4.13025 123.489H8.38025V158.489H4.13025V123.489ZM6.48025 127.489V123.489H13.6302C15.8969 123.489 17.9136 123.922 19.6803 124.789C21.4803 125.622 22.8969 126.822 23.9302 128.389C24.9969 129.955 25.5302 131.822 25.5302 133.989C25.5302 136.122 24.9969 137.989 23.9302 139.589C22.8969 141.155 21.4803 142.372 19.6803 143.239C17.9136 144.072 15.8969 144.489 13.6302 144.489H6.48025V140.489H13.6302C15.8969 140.489 17.7303 139.939 19.1303 138.839C20.5636 137.739 21.2802 136.122 21.2802 133.989C21.2802 131.822 20.5636 130.205 19.1303 129.139C17.7303 128.039 15.8969 127.489 13.6302 127.489H6.48025ZM31.5592 151.389C31.5592 152.255 31.7592 153.005 32.1592 153.639C32.5925 154.272 33.1758 154.755 33.9092 155.089C34.6758 155.389 35.5425 155.539 36.5092 155.539C37.7425 155.539 38.8425 155.289 39.8092 154.789C40.8092 154.289 41.5925 153.589 42.1592 152.689C42.7592 151.755 43.0592 150.689 43.0592 149.489L43.8592 152.489C43.8592 153.955 43.4092 155.172 42.5092 156.139C41.6425 157.105 40.5592 157.822 39.2592 158.289C37.9925 158.755 36.7258 158.989 35.4592 158.989C34.0592 158.989 32.7425 158.705 31.5092 158.139C30.3092 157.539 29.3425 156.689 28.6092 155.589C27.8758 154.489 27.5092 153.155 27.5092 151.589C27.5092 149.355 28.2925 147.572 29.8592 146.239C31.4592 144.872 33.6758 144.189 36.5092 144.189C38.1758 144.189 39.5592 144.389 40.6592 144.789C41.7925 145.155 42.6925 145.589 43.3592 146.089C44.0258 146.555 44.4758 146.939 44.7092 147.239V149.589C43.5425 148.789 42.3425 148.222 41.1092 147.889C39.8758 147.522 38.5592 147.339 37.1592 147.339C35.8592 147.339 34.7925 147.505 33.9592 147.839C33.1592 148.172 32.5592 148.639 32.1592 149.239C31.7592 149.839 31.5592 150.555 31.5592 151.389ZM30.9592 140.789L29.0092 137.839C29.8758 137.205 31.0592 136.572 32.5592 135.939C34.0925 135.305 35.9258 134.989 38.0592 134.989C39.8592 134.989 41.4258 135.272 42.7592 135.839C44.1258 136.372 45.1758 137.155 45.9092 138.189C46.6758 139.222 47.0592 140.489 47.0592 141.989V158.489H43.0592V142.539C43.0592 141.739 42.9258 141.089 42.6592 140.589C42.3925 140.055 42.0092 139.639 41.5092 139.339C41.0425 139.039 40.4925 138.822 39.8592 138.689C39.2258 138.555 38.5592 138.489 37.8592 138.489C36.7258 138.489 35.6925 138.622 34.7592 138.889C33.8592 139.155 33.0925 139.472 32.4592 139.839C31.8258 140.205 31.3258 140.522 30.9592 140.789ZM68.5814 144.489C68.5814 142.589 68.1648 141.155 67.3314 140.189C66.4981 139.222 65.2814 138.739 63.6814 138.739C62.5148 138.739 61.4814 138.989 60.5814 139.489C59.7148 139.955 59.0314 140.622 58.5314 141.489C58.0648 142.355 57.8314 143.355 57.8314 144.489V158.489H53.8314V135.489H57.8314V139.089C58.5981 137.689 59.5481 136.655 60.6814 135.989C61.8481 135.322 63.1814 134.989 64.6814 134.989C67.1148 134.989 69.0314 135.805 70.4314 137.439C71.8648 139.039 72.5814 141.222 72.5814 143.989V158.489H68.5814V144.489ZM76.601 135.489H88.101V139.239H76.601V135.489ZM80.351 127.489H84.351V158.489H80.351V127.489ZM96.1127 135.489V158.489H92.1127V135.489H96.1127ZM103.063 139.889C102.529 139.489 102.046 139.205 101.613 139.039C101.179 138.839 100.629 138.739 99.9627 138.739C98.9627 138.739 98.1793 138.989 97.6127 139.489C97.046 139.989 96.646 140.672 96.4127 141.539C96.2127 142.405 96.1127 143.389 96.1127 144.489H94.3127C94.3127 142.655 94.6293 141.039 95.2627 139.639C95.9293 138.205 96.7793 137.072 97.8127 136.239C98.846 135.405 99.896 134.989 100.963 134.989C101.796 134.989 102.563 135.105 103.263 135.339C103.996 135.539 104.663 135.955 105.263 136.589L103.063 139.889ZM129.015 135.489L114.015 169.489H109.515L115.815 155.239L107.015 135.489H111.765L119.065 153.489L117.415 153.289L124.515 135.489H129.015ZM133.036 123.489H137.286V158.489H133.036V123.489ZM135.386 127.489V123.489H142.536C144.803 123.489 146.82 123.922 148.587 124.789C150.387 125.622 151.803 126.822 152.836 128.389C153.903 129.955 154.436 131.822 154.436 133.989C154.436 136.122 153.903 137.989 152.836 139.589C151.803 141.155 150.387 142.372 148.587 143.239C146.82 144.072 144.803 144.489 142.536 144.489H135.386V140.489H142.536C144.803 140.489 146.637 139.939 148.037 138.839C149.47 137.739 150.186 136.122 150.186 133.989C150.186 131.822 149.47 130.205 148.037 129.139C146.637 128.039 144.803 127.489 142.536 127.489H135.386ZM160.465 151.389C160.465 152.255 160.665 153.005 161.065 153.639C161.499 154.272 162.082 154.755 162.815 155.089C163.582 155.389 164.449 155.539 165.415 155.539C166.649 155.539 167.749 155.289 168.715 154.789C169.715 154.289 170.499 153.589 171.065 152.689C171.665 151.755 171.965 150.689 171.965 149.489L172.765 152.489C172.765 153.955 172.315 155.172 171.415 156.139C170.549 157.105 169.465 157.822 168.165 158.289C166.899 158.755 165.632 158.989 164.365 158.989C162.965 158.989 161.649 158.705 160.415 158.139C159.215 157.539 158.249 156.689 157.515 155.589C156.782 154.489 156.415 153.155 156.415 151.589C156.415 149.355 157.199 147.572 158.765 146.239C160.365 144.872 162.582 144.189 165.415 144.189C167.082 144.189 168.465 144.389 169.565 144.789C170.699 145.155 171.599 145.589 172.265 146.089C172.932 146.555 173.382 146.939 173.615 147.239V149.589C172.449 148.789 171.249 148.222 170.015 147.889C168.782 147.522 167.465 147.339 166.065 147.339C164.765 147.339 163.699 147.505 162.865 147.839C162.065 148.172 161.465 148.639 161.065 149.239C160.665 149.839 160.465 150.555 160.465 151.389ZM159.865 140.789L157.915 137.839C158.782 137.205 159.965 136.572 161.465 135.939C162.999 135.305 164.832 134.989 166.965 134.989C168.765 134.989 170.332 135.272 171.665 135.839C173.032 136.372 174.082 137.155 174.815 138.189C175.582 139.222 175.965 140.489 175.965 141.989V158.489H171.965V142.539C171.965 141.739 171.832 141.089 171.565 140.589C171.299 140.055 170.915 139.639 170.415 139.339C169.949 139.039 169.399 138.822 168.765 138.689C168.132 138.555 167.465 138.489 166.765 138.489C165.632 138.489 164.599 138.622 163.665 138.889C162.765 139.155 161.999 139.472 161.365 139.839C160.732 140.205 160.232 140.522 159.865 140.789ZM182.738 119.489H186.738V158.489H182.738V119.489Z" fill="black"/>
</svg>
