<svg width="165" height="217" viewBox="0 0 165 217" fill="none" xmlns="http://www.w3.org/2000/svg">
<path d="M0.696899 170.539V2.97217C0.696899 1.8676 1.59233 0.972168 2.6969 0.972168H162.599C163.703 0.972168 164.599 1.8676 164.599 2.97217V170.539C164.599 171.643 163.703 172.539 162.599 172.539H2.6969C1.59233 172.539 0.696899 171.643 0.696899 170.539Z" fill="url(#paint0_linear_302_13)"/>
<path d="M6.50452 164.463V9.04736C6.50452 7.94279 7.39994 7.04736 8.50451 7.04736H156.791C157.896 7.04736 158.791 7.94279 158.791 9.04736V164.463C158.791 165.568 157.896 166.463 156.791 166.463H8.50452C7.39995 166.463 6.50452 165.568 6.50452 164.463Z" fill="url(#paint1_linear_302_13)"/>
<path d="M159.092 7.04736V166.526L155.344 164.025V7.04736H159.092Z" fill="#C6C9D1"/>
<path d="M155.141 114.753L159.211 123.006H6.78247V114.753H155.141Z" fill="#DFE1E6"/>
<path d="M154.722 72.1339L158.791 80.3872H6.36304V72.1339H154.722Z" fill="#DFE1E6"/>
<path d="M154.722 29.5155L158.791 37.7688H6.36304V29.5155H154.722Z" fill="#DFE1E6"/>
<path d="M158.791 44.1367H8.98303V37.1909H158.791V44.1367Z" fill="url(#paint2_linear_302_13)"/>
<path d="M158.791 86.7554H8.98303V79.8096H158.791V86.7554Z" fill="url(#paint3_linear_302_13)"/>
<path d="M158.791 7.04736C158.791 7.04736 146.274 12.122 138.071 12.0555C130.134 11.9912 118.042 7.04736 118.042 7.04736" stroke="#F3F5FC"/>
<path d="M158.791 7.57812C158.791 7.57812 144.552 14.2663 135.874 20.6004C129.774 25.0528 120.461 32.0158 120.461 32.0158" stroke="#F3F5FC"/>
<path d="M158.791 7.34302L139.626 34.3597" stroke="#F3F5FC"/>
<path d="M158.791 7.04736L153.039 37.0886" stroke="#F3F5FC"/>
<path d="M156.727 18.1294C156.727 18.1294 156.046 16.678 155.06 16.2C154 15.6862 152.439 15.8942 152.439 15.8942" stroke="#F3F5FC"/>
<path d="M155.344 24.8892C155.344 24.8892 154.369 22.1702 152.955 21.2747C151.435 20.3122 149.197 20.7018 149.197 20.7018" stroke="#F3F5FC"/>
<path d="M154.164 30.6773C154.164 30.6773 152.785 27.5675 150.786 26.5433C148.637 25.4425 145.473 25.888 145.473 25.888" stroke="#F3F5FC"/>
<path d="M153.247 36.7036C153.247 36.7036 151.357 33.7154 148.617 32.7312C145.672 31.6734 141.335 32.1016 141.335 32.1016" stroke="#F3F5FC"/>
<path d="M152.647 16.0586C152.647 16.0586 152.349 14.2616 151.595 13.4955C150.786 12.6722 149.373 12.4766 149.373 12.4766" stroke="#F3F5FC"/>
<path d="M149.373 20.8949C149.373 20.8949 148.532 18.2137 147.243 17.0714C145.859 15.8437 143.352 15.8525 143.352 15.8525" stroke="#F3F5FC"/>
<path d="M145.795 25.4814C145.795 25.4814 144.421 22.5221 142.37 21.1848C140.167 19.7476 137.141 19.7971 137.141 19.7971" stroke="#F3F5FC"/>
<path d="M103.86 43.8275L101.645 45.9939L2.70914 2.78833H7.97992L103.86 43.8275Z" fill="#DFE1E7"/>
<path d="M155.514 158.615L159.583 166.869H7.15527V158.615H155.514Z" fill="#DFE1E6"/>
<path d="M141.335 32.0159C141.335 32.0159 139.282 28.9657 136.217 27.5873C132.924 26.106 128.402 26.157 128.402 26.157" stroke="#F3F5FC"/>
<path d="M149.819 12.4766C149.819 12.4766 149.428 11.5684 148.845 11.1581C148.218 10.717 147.357 10.7322 147.357 10.7322" stroke="#F3F5FC"/>
<path d="M143.73 15.8523C143.73 15.8523 142.326 14.4379 140.7 13.578C138.953 12.6537 136.71 12.0562 136.71 12.0562" stroke="#F3F5FC"/>
<path d="M137.141 19.8329C137.141 19.8329 136.554 17.3918 134.474 15.061C132.395 12.7301 128.976 10.614 128.976 10.614" stroke="#F3F5FC"/>
<path d="M129.115 25.7989C129.115 25.7989 128.254 21.5036 126.597 17.4268C124.817 13.0453 122.125 8.46948 122.125 8.46948" stroke="#F3F5FC"/>
<path d="M158.791 129.374H8.98303V122.428H158.791V129.374Z" fill="url(#paint4_linear_302_13)"/>
<path d="M101.54 47.1313V213.121C101.54 214.569 100.049 215.537 98.7267 214.948L1.88312 171.815C1.16164 171.494 0.696831 170.778 0.696831 169.988V4.95172C0.696831 3.51083 2.17442 2.54273 3.49545 3.11809L100.339 45.2976C101.069 45.6154 101.54 46.3355 101.54 47.1313Z" fill="#E6E8EF"/>
<path d="M103.846 212.463L101.171 214.518L101.487 46.2015L103.846 43.5344V212.463Z" fill="#D6D8DE"/>
<path d="M88.3616 123.824C88.1789 117.478 90.6662 108.479 91.0018 107.296C91.0269 107.208 91.039 107.12 91.039 107.028C91.039 105.939 89.6378 105.71 89.3265 106.753C87.9001 111.534 86.0979 118.598 86.079 123.824C86.0606 128.918 87.7509 135.267 89.163 139.675C89.5287 140.816 91.039 140.547 91.039 139.348C91.039 139.25 91.0272 139.158 91.0018 139.064C90.6906 137.908 88.5305 129.695 88.3616 123.824Z" fill="#D2D5DE"/>
<path d="M137.651 136.17C137.651 136.17 135.843 133.834 133.788 133.199C131.579 132.516 128.714 133.199 128.714 133.199" stroke="#F3F5FC"/>
<path d="M125.972 156.102C125.972 156.102 125.548 155.556 125.011 155.208C124.434 154.833 123.615 154.918 123.615 154.918" stroke="#F3F5FC"/>
<path d="M128.714 151.188C128.714 151.188 127.825 150.149 126.978 149.688C126.068 149.192 124.878 149.326 124.878 149.326" stroke="#F3F5FC"/>
<path d="M133.182 143.266C133.182 143.266 131.891 141.503 130.44 141.023C128.88 140.508 126.873 141.023 126.873 141.023" stroke="#F3F5FC"/>
<path d="M123.615 155.136C123.615 155.136 123.277 154.654 122.908 154.565C122.511 154.47 122.011 154.722 122.011 154.722" stroke="#F3F5FC"/>
<path d="M124.793 149.309C124.793 149.309 124.065 148.762 123.425 148.707C122.737 148.648 122.011 149.051 122.011 149.051" stroke="#F3F5FC"/>
<path d="M126.873 140.794C126.873 140.794 125.279 139.806 123.961 139.744C122.545 139.678 121.142 140.507 121.142 140.507" stroke="#F3F5FC"/>
<path d="M128.916 133.082C128.916 133.082 126.385 131.98 124.135 132.1C121.717 132.229 119.606 133.495 119.606 133.495" stroke="#F3F5FC"/>
<path d="M108.22 129.227C108.22 129.227 114.383 139.215 117.224 147.511C119.391 153.836 121.684 164.069 121.684 164.069M121.684 164.069C121.684 164.069 122.82 151.508 121.684 143.604C120.729 136.962 117.863 129.227 117.863 129.227M121.684 164.069C121.684 164.069 124.021 151.495 126.143 143.604C127.904 137.056 130.249 127.817 130.249 127.817M121.684 164.069C121.684 164.069 127.389 153.196 131.316 146.395C135.454 139.23 146.934 125.901 146.934 125.901" stroke="#F3F5FC"/>
<path d="M119.606 133.692C119.606 133.692 117.401 133.041 115.272 133.692C113.143 134.343 112.145 136.144 112.145 136.144" stroke="#F3F5FC"/>
<path d="M121.142 140.584C121.142 140.584 119.441 139.872 117.798 140.584C116.156 141.296 115.385 143.266 115.385 143.266" stroke="#F3F5FC"/>
<path d="M122.429 149.136C122.429 149.136 121.079 148.59 119.812 148.885C118.545 149.18 117.989 150.249 117.989 150.249" stroke="#F3F5FC"/>
<path d="M122.011 154.645C122.011 154.645 121.243 154.417 120.501 154.645C119.76 154.874 119.412 155.506 119.412 155.506" stroke="#F3F5FC"/>
<defs>
<linearGradient id="paint0_linear_302_13" x1="164.599" y1="86.7554" x2="0.696899" y2="86.7554" gradientUnits="userSpaceOnUse">
<stop stop-color="#E5E7ED"/>
</linearGradient>
<linearGradient id="paint1_linear_302_13" x1="158.791" y1="86.7553" x2="6.50452" y2="86.7553" gradientUnits="userSpaceOnUse">
<stop stop-color="#D3D5DA"/>
</linearGradient>
<linearGradient id="paint2_linear_302_13" x1="8.98303" y1="40.6638" x2="158.791" y2="40.6638" gradientUnits="userSpaceOnUse">
<stop offset="1" stop-color="#CACCD1"/>
</linearGradient>
<linearGradient id="paint3_linear_302_13" x1="8.98303" y1="83.2825" x2="158.791" y2="83.2825" gradientUnits="userSpaceOnUse">
<stop offset="1" stop-color="#CACCD1"/>
</linearGradient>
<linearGradient id="paint4_linear_302_13" x1="8.98303" y1="125.901" x2="158.791" y2="125.901" gradientUnits="userSpaceOnUse">
<stop offset="1" stop-color="#CACCD1"/>
</linearGradient>
</defs>
</svg>
