<svg width="44" height="56" viewBox="0 0 44 56" fill="none" xmlns="http://www.w3.org/2000/svg">
<path d="M7.35718 52.5646L1.81458 55V1.86371L7.35718 4.29917L12.8997 1.86371L17.1632 4.29917L22.7058 1.86371L28.0351 4.29917L32.2986 1.86371L38.0544 4.29917L42.9574 1.86371V55L38.0544 52.5646L32.2986 55L28.0351 52.5646L22.7058 55L17.1632 52.5646L12.8997 55L7.35718 52.5646Z" fill="white" stroke="#404040" stroke-width="2" stroke-linejoin="bevel"/>
<path d="M35.0578 31.5895C35.174 32.1294 35.7058 32.473 36.2457 32.3569C36.7857 32.2408 37.1293 31.7089 37.0131 31.169L35.0578 31.5895ZM31.778 28.6674L31.6795 27.6722L31.778 28.6674ZM28.3189 32.1805L27.3213 32.1112L28.3189 32.1805ZM31.778 35.7214L32.0925 34.7721L31.9914 34.7444L31.778 35.7214ZM29.3189 39.7772C29.3189 39.2249 28.8711 38.7772 28.3189 38.7772C27.7666 38.7772 27.3189 39.2249 27.3189 39.7772H29.3189ZM36.0355 31.3792C37.0131 31.169 37.013 31.1684 37.0129 31.1678C37.0128 31.1676 37.0127 31.1671 37.0126 31.1666C37.0124 31.1658 37.0123 31.1649 37.0121 31.164C37.0116 31.1622 37.0112 31.1601 37.0107 31.1579C37.0097 31.1534 37.0085 31.1482 37.0071 31.1422C37.0043 31.1303 37.0007 31.1153 36.9962 31.0976C36.9871 31.0623 36.9745 31.0157 36.9576 30.9596C36.9239 30.8476 36.8727 30.6962 36.7986 30.5193C36.6516 30.1682 36.4077 29.7004 36.0175 29.2417C35.2029 28.2841 33.8233 27.4599 31.6795 27.6722L31.8766 29.6625C33.3303 29.5185 34.0795 30.0502 34.4942 30.5377C34.7187 30.8015 34.8645 31.0785 34.9537 31.2915C34.9977 31.3967 35.0262 31.4822 35.0426 31.5366C35.0508 31.5637 35.0558 31.5827 35.0582 31.5921C35.0594 31.5968 35.06 31.599 35.0599 31.5987C35.0598 31.5985 35.0596 31.5977 35.0593 31.5961C35.0591 31.5954 35.0589 31.5945 35.0587 31.5933C35.0586 31.5928 35.0584 31.5922 35.0583 31.5916C35.0582 31.5912 35.0581 31.5907 35.0581 31.5906C35.058 31.59 35.0578 31.5895 36.0355 31.3792ZM31.6795 27.6722C29.2217 27.9157 27.4863 29.7353 27.3213 32.1112L29.3165 32.2498C29.4136 30.8514 30.3851 29.8102 31.8766 29.6625L31.6795 27.6722ZM27.3213 32.1112C27.1881 34.0279 28.4297 35.2071 29.4561 35.8334C29.9794 36.1528 30.4999 36.3658 30.8831 36.4987C31.0767 36.5658 31.2402 36.6142 31.3581 36.6464C31.4172 36.6625 31.4651 36.6747 31.5001 36.6832C31.5176 36.6875 31.5319 36.6909 31.5427 36.6934C31.5481 36.6946 31.5527 36.6957 31.5563 36.6965C31.5582 36.6969 31.5598 36.6972 31.5612 36.6976C31.5619 36.6977 31.5625 36.6978 31.5631 36.698C31.5634 36.698 31.5638 36.6981 31.5639 36.6982C31.5643 36.6982 31.5646 36.6983 31.778 35.7214C31.9914 34.7444 31.9918 34.7445 31.9921 34.7445C31.9922 34.7445 31.9925 34.7446 31.9927 34.7447C31.993 34.7447 31.9933 34.7448 31.9936 34.7449C31.9941 34.745 31.9944 34.745 31.9944 34.745C31.9946 34.7451 31.9939 34.7449 31.9924 34.7446C31.9894 34.7439 31.9832 34.7425 31.9741 34.7402C31.9557 34.7357 31.9254 34.7281 31.8851 34.7171C31.8042 34.695 31.684 34.6596 31.5383 34.6091C31.2432 34.5068 30.8631 34.3491 30.4979 34.1262C29.747 33.668 29.259 33.0767 29.3165 32.2498L27.3213 32.1112ZM31.778 35.7214C31.4636 36.6706 31.4633 36.6705 31.4631 36.6705C31.4631 36.6705 31.4628 36.6704 31.4627 36.6703C31.4625 36.6703 31.4624 36.6702 31.4623 36.6702C31.4621 36.6701 31.4621 36.6701 31.4625 36.6703C31.4631 36.6705 31.4647 36.671 31.4673 36.6719C31.4724 36.6736 31.4813 36.6767 31.4938 36.6811C31.5189 36.6899 31.558 36.704 31.6093 36.7232C31.7121 36.7618 31.8625 36.821 32.0445 36.9001C32.4114 37.0596 32.8926 37.2945 33.3665 37.5987C34.3936 38.2581 35.0355 39.0114 35.0355 39.7772H37.0355C37.0355 37.8974 35.5486 36.6229 34.447 35.9157C33.8565 35.5366 33.2734 35.2536 32.842 35.066C32.6249 34.9716 32.4427 34.8999 32.3126 34.851C32.2475 34.8265 32.1952 34.8077 32.1579 34.7946C32.1392 34.788 32.1242 34.7828 32.1132 34.7791C32.1077 34.7772 32.1033 34.7757 32.0998 34.7745C32.0981 34.7739 32.0966 34.7734 32.0954 34.773C32.0947 34.7728 32.0942 34.7726 32.0937 34.7725C32.0935 34.7724 32.0932 34.7723 32.0931 34.7723C32.0928 34.7722 32.0925 34.7721 31.778 35.7214ZM35.0355 39.7772C35.0355 40.4112 34.7195 40.9553 34.1286 41.3768C33.5227 41.8092 32.6679 42.0725 31.778 42.0725V44.0725C33.0287 44.0725 34.3026 43.7096 35.2902 43.0049C36.293 42.2895 37.0355 41.186 37.0355 39.7772H35.0355ZM31.778 42.0725C31.0786 42.0725 30.6209 41.9082 30.3143 41.7135C30.0037 41.5162 29.7887 41.2498 29.6367 40.9601C29.4821 40.6655 29.3999 40.3597 29.3579 40.1197C29.3373 40.002 29.3275 39.9062 29.3228 39.844C29.3205 39.8131 29.3195 39.791 29.3191 39.7792C29.3189 39.7733 29.3188 39.7701 29.3188 39.7697C29.3188 39.7695 29.3188 39.77 29.3188 39.7712C29.3188 39.7718 29.3188 39.7726 29.3189 39.7736C29.3189 39.7741 29.3189 39.7747 29.3189 39.7753C29.3189 39.7755 29.3189 39.776 29.3189 39.7762C29.3189 39.7767 29.3189 39.7772 28.3189 39.7772C27.3189 39.7772 27.3189 39.7777 27.3189 39.7782C27.3189 39.7784 27.3189 39.779 27.3189 39.7794C27.3189 39.7802 27.3189 39.781 27.3189 39.7819C27.3189 39.7837 27.3189 39.7857 27.3189 39.7879C27.3189 39.7923 27.319 39.7975 27.3191 39.8035C27.3193 39.8156 27.3197 39.8309 27.3203 39.8491C27.3216 39.8857 27.324 39.9344 27.3284 39.9935C27.3373 40.1115 27.3544 40.2732 27.3879 40.4644C27.454 40.8423 27.588 41.3603 27.8658 41.8896C28.1462 42.4237 28.5798 42.9811 29.2421 43.4018C29.9083 43.8249 30.7479 44.0725 31.778 44.0725V42.0725Z" fill="#FD2D2D"/>
<path d="M32.2108 28.6869V26.1089" stroke="#FD2D2D" stroke-width="2" stroke-linecap="round" stroke-linejoin="bevel"/>
<path d="M32.382 43.0874V45.5764" stroke="#FD2D2D" stroke-width="2" stroke-linecap="round" stroke-linejoin="bevel"/>
<path d="M42.0758 14.0226H22.386H2.69623" stroke="#FD2D2D" stroke-width="2" stroke-linejoin="bevel" stroke-dasharray="6 6"/>
<path d="M8.55878 22.2457H26.7866" stroke="#404040" stroke-width="2" stroke-linecap="round" stroke-linejoin="bevel"/>
<path d="M8.5589 29.6992H21.0498" stroke="#404040" stroke-width="2" stroke-linecap="round" stroke-linejoin="bevel"/>
<path d="M8.5589 36.6345H18.9721" stroke="#404040" stroke-width="2" stroke-linecap="round" stroke-linejoin="bevel"/>
<path d="M8.5589 44.3319H21.0498" stroke="#404040" stroke-width="2" stroke-linecap="round" stroke-linejoin="bevel"/>
</svg>
