<svg width="393" height="133" viewBox="0 0 393 133" fill="none" xmlns="http://www.w3.org/2000/svg">
<path d="M-3.05176e-05 0.866089L392.873 0.866089L392.873 110.548C392.873 110.548 350.329 120.619 307.539 120.043C270.907 119.551 238.469 112.728 201.881 113.414C163.287 114.138 125.944 127.306 87.5959 128.67C41.7635 130.3 -3.05176e-05 119.375 -3.05176e-05 119.375L-3.05176e-05 0.866089Z" fill="#92E5A2"/>
<path d="M0.126678 1.20142L393 1.20142L393 102.039C393 102.039 362.335 116.875 319.545 116.314C282.912 115.833 246.036 101.37 209.447 102.039C170.854 102.745 126.14 119.98 87.7921 121.309C41.9597 122.899 0.126678 111.172 0.126678 111.172L0.126678 1.20142Z" fill="#6DC47E"/>
<path d="M-3.05176e-05 125.257C-3.05176e-05 125.257 43.0527 132.315 70.8325 132.024C123.062 131.477 149.558 104.211 201.79 104.11C245.838 104.024 269.157 128.128 312.981 123.565C345.472 120.182 392.873 98.1887 392.873 98.1887" stroke="black" stroke-linejoin="bevel"/>
</svg>
