<svg width="393" height="110" viewBox="0 0 393 110" fill="none" xmlns="http://www.w3.org/2000/svg">
<path d="M-0.756119 110L392.117 110L392.117 16.5213C392.117 16.5213 349.573 7.93799 306.783 8.42843C270.15 8.84829 237.713 14.6633 201.125 14.0782C162.531 13.461 125.188 2.23809 86.8398 1.07575C41.0075 -0.313446 -0.756119 8.99776 -0.756119 8.99776L-0.756119 110Z" fill="#92E5A2"/>
<path d="M-0.62941 109.714L392.244 109.714L392.244 23.7726C392.244 23.7726 361.579 11.1289 318.789 11.6071C282.156 12.0165 245.279 24.3431 208.691 23.7726C170.097 23.1709 125.384 8.48252 87.036 7.3492C41.2037 5.99469 -0.62941 15.9894 -0.62941 15.9894L-0.62941 109.714Z" fill="#6DC47E"/>
</svg>
