<svg width="26" height="27" viewBox="0 0 26 27" fill="none" xmlns="http://www.w3.org/2000/svg">
<path d="M18.3849 20.0012L22.8003 15.499C23.3796 14.9083 24.3311 14.9091 24.9093 15.5008V15.5008C25.3855 15.988 25.4662 16.7379 25.1047 17.3153L20.2611 25.0523C19.7127 25.9284 18.7519 26.4604 17.7183 26.4604H11.3642C10.9112 26.4604 10.4637 26.3577 10.056 26.1602C8.72569 25.5158 7.77691 25.0563 6.4466 24.4119C6.03891 24.2144 5.59138 24.1116 5.13839 24.1116H3.60449C1.94764 24.1116 0.604492 22.7685 0.604492 21.1116V19.1204V18.3375C0.604492 17.1924 1.25015 16.1294 2.31877 15.7176C2.61608 15.603 2.91629 15.4977 3.18661 15.4212C4.44311 15.0658 5.18835 15.0838 6.44839 15.4212C8.35355 15.9314 8.84935 17.4216 10.6759 18.2396C12.782 19.1828 15.097 18.3413 17.2507 19.1204C18.0441 19.4074 18.3849 20.0012 18.3849 20.0012ZM18.3849 20.0012C18.3849 20.0012 18.5528 20.846 18.3849 21.3224C18.147 21.9972 17.1566 22.1554 16.669 22.1922C16.4872 22.2059 16.3067 22.2185 16.1261 22.2445C15.259 22.3695 12.4905 22.7052 10.6759 22.2032C8.919 21.7172 6.44839 20.0012 6.44839 20.0012M12.478 3.71085C12.0792 3.82291 10.8294 0.376284 8.93893 0.966946C7.36235 1.45954 6.11087 2.27588 6.44839 4.74418C6.63895 6.13771 8.53623 9.04271 10.1524 11.3083C11.2939 12.9087 13.6291 12.8841 14.7455 11.2661C16.3372 8.95934 18.2118 6.02036 18.3849 4.74418C18.6902 2.4927 17.2383 1.15086 15.5715 0.966946C13.912 0.783824 12.8769 3.5988 12.478 3.71085Z" stroke="black"/>
</svg>
