<svg width="26" height="28" viewBox="0 0 26 28" fill="none" xmlns="http://www.w3.org/2000/svg">
<path d="M18.3849 20.4505L22.8003 15.9483C23.3796 15.3577 24.3311 15.3585 24.9093 15.9501V15.9501C25.3855 16.4374 25.4662 17.1872 25.1047 17.7646L20.2611 25.5017C19.7127 26.3777 18.7519 26.9098 17.7183 26.9098H11.3642C10.9112 26.9098 10.4637 26.807 10.056 26.6095C8.72569 25.9652 7.77691 25.5056 6.4466 24.8612C6.03891 24.6638 5.59138 24.561 5.13839 24.561H3.60449C1.94764 24.561 0.604492 23.2178 0.604492 21.561V19.5697V18.7869C0.604492 17.6417 1.25015 16.5787 2.31877 16.1669C2.61608 16.0524 2.91629 15.947 3.18661 15.8706C4.44311 15.5152 5.18835 15.5332 6.44839 15.8706C8.35355 16.3807 8.84935 17.8709 10.6759 18.6889C12.782 19.6322 15.097 18.7907 17.2507 19.5697C18.0441 19.8567 18.3849 20.4505 18.3849 20.4505ZM18.3849 20.4505C18.3849 20.4505 18.5528 21.2954 18.3849 21.7717C18.147 22.4466 17.1566 22.6047 16.669 22.6416C16.4872 22.6553 16.3067 22.6678 16.1261 22.6939C15.259 22.8188 12.4905 23.1545 10.6759 22.6526C8.919 22.1666 6.44839 20.4505 6.44839 20.4505M12.478 4.1602C12.0792 4.27225 10.8294 0.825625 8.93893 1.41629C7.36235 1.90888 6.11087 2.72523 6.44839 5.19352C6.63895 6.58706 8.53623 9.49205 10.1524 11.7577C11.2939 13.358 13.6291 13.3335 14.7455 11.7155C16.3372 9.40868 18.2118 6.4697 18.3849 5.19352C18.6902 2.94204 17.2383 1.6002 15.5715 1.41629C13.912 1.23316 12.8769 4.04814 12.478 4.1602Z" stroke="#6DC47E"/>
</svg>
