<svg width="24" height="27" viewBox="0 0 24 27" fill="none" xmlns="http://www.w3.org/2000/svg">
<path d="M15.825 13.0378L17.1693 12.0115L18.3584 13.0378L20.1959 12.0115M15.825 13.0378L14.429 11.7671M15.825 13.0378V26.4774M14.429 11.7671L12.9296 13.0378L11.6887 11.7671L10.5512 13.0378L9.05183 11.7671L7.65584 13.0378L6.31155 11.7671L4.76045 13.0378L3.67468 11.7671V24.9624C3.67468 24.9624 3.786 25.8421 4.19171 26.1842C4.65271 26.5729 5.74281 26.4774 5.74281 26.4774H15.825M14.429 11.7671L18.3584 1.65073C18.3584 1.65073 19.4959 0.380092 21.5123 1.01542C23.5288 1.65074 23.2185 3.50787 23.2185 3.50787L20.1959 12.0115M15.825 26.4774H18.8238C18.8238 26.4774 19.8825 26.3414 20.2715 25.891C20.6152 25.4929 20.6334 24.6203 20.6334 24.6203V11.7671L20.1959 12.0115M17.1693 7.80855L18.3584 10.5942" stroke="#6DC47E"/>
<path d="M18.9789 5.02295L20.0129 7.66201" stroke="#6DC47E"/>
<path d="M12.6711 12.4514C12.6711 12.4514 11.6887 10.0078 9.56889 10.0078C8.73898 10.0078 8.10436 10.4256 7.65587 10.8886M6.82861 12.1093C6.82861 12.1093 7.0985 11.464 7.65587 10.8886M13.033 12.9401V6.04924M13.033 6.04924H7.65587M13.033 6.04924L14.9977 3.85003M7.65587 6.04924V10.8886M7.65587 6.04924L10.1376 3.85003M10.1376 3.85003H14.9977M10.1376 3.85003V1.84631H14.9977V3.85003M14.9977 3.85003L16.8074 5.60942" stroke="#6DC47E"/>
<path d="M7.4491 11.2297C7.4491 11.2297 5.69117 8.444 5.48437 8.05306C5.27758 7.66212 3.72644 7.31996 2.8475 8.05306C1.96855 8.78617 2.20092 8.95818 2.17536 9.61695C2.13346 10.6965 3.72645 11.9628 3.72645 11.9628" stroke="#6DC47E"/>
<path d="M3.15771 10.9852L4.60541 10.1055" stroke="#6DC47E"/>
<path d="M4.29517 12.3536L5.12242 11.6694" stroke="#6DC47E"/>
<path d="M2.89919 8.0529L0.831055 6.34241" stroke="#6DC47E"/>
<path d="M3.05424 8.10178L2.27869 5.5116" stroke="#6DC47E"/>
<path d="M4.9156 7.85762V6.88018L3.3128 6.39148C3.3128 6.39148 2.69237 6.09824 3.00259 5.70726C3.3128 5.31628 3.62303 5.31628 3.62303 5.31628L5.58776 6.0982V5.31628L3.00259 3.65463C3.00259 3.65463 2.64065 3.41027 3.3128 2.62834C3.98496 1.84641 4.24347 2.38397 4.24347 2.38397L5.58776 3.41027V1.65089C5.58776 1.65089 5.58776 1.21107 6.57012 1.21106C7.55248 1.21105 7.60419 1.94414 7.60419 1.94414V3.85013C7.60419 3.85013 8.34956 2.78967 9.10359 2.62834C9.45806 2.55249 10.0342 2.62834 10.0342 2.62834" stroke="#6DC47E"/>
</svg>
