<svg width="24" height="28" viewBox="0 0 24 28" fill="none" xmlns="http://www.w3.org/2000/svg">
<path d="M15.825 13.5884L17.1693 12.5621L18.3584 13.5884L20.1959 12.5621M15.825 13.5884L14.429 12.3178M15.825 13.5884V27.0281M14.429 12.3178L12.9296 13.5884L11.6887 12.3178L10.5512 13.5884L9.05183 12.3178L7.65584 13.5884L6.31155 12.3178L4.76045 13.5884L3.67468 12.3178V25.5131C3.67468 25.5131 3.786 26.3928 4.19171 26.7349C4.65271 27.1235 5.74281 27.0281 5.74281 27.0281H15.825M14.429 12.3178L18.3584 2.20139C18.3584 2.20139 19.4959 0.930751 21.5123 1.56607C23.5288 2.2014 23.2185 4.05852 23.2185 4.05852L20.1959 12.5621M15.825 27.0281H18.8238C18.8238 27.0281 19.8825 26.892 20.2715 26.4416C20.6152 26.0435 20.6334 25.171 20.6334 25.171V12.3178L20.1959 12.5621M17.1693 8.35921L18.3584 11.1449" stroke="black"/>
<path d="M18.9789 5.57361L20.0129 8.21267" stroke="black"/>
<path d="M12.6711 13.0021C12.6711 13.0021 11.6887 10.5585 9.56889 10.5585C8.73898 10.5585 8.10436 10.9763 7.65587 11.4393M6.82861 12.66C6.82861 12.66 7.0985 12.0147 7.65587 11.4393M13.033 13.4908V6.5999M13.033 6.5999H7.65587M13.033 6.5999L14.9977 4.40069M7.65587 6.5999V11.4393M7.65587 6.5999L10.1376 4.40069M10.1376 4.40069H14.9977M10.1376 4.40069V2.39697H14.9977V4.40069M14.9977 4.40069L16.8074 6.16007" stroke="black"/>
<path d="M7.4491 11.7804C7.4491 11.7804 5.69117 8.99466 5.48437 8.60372C5.27758 8.21278 3.72644 7.87062 2.8475 8.60372C1.96855 9.33682 2.20092 9.50884 2.17536 10.1676C2.13346 11.2472 3.72645 12.5134 3.72645 12.5134" stroke="black"/>
<path d="M3.15771 11.5358L4.60541 10.6561" stroke="black"/>
<path d="M4.29517 12.9043L5.12242 12.2201" stroke="black"/>
<path d="M2.89919 8.60356L0.831055 6.89307" stroke="black"/>
<path d="M3.05424 8.65244L2.27869 6.06226" stroke="black"/>
<path d="M4.9156 8.40828V7.43084L3.3128 6.94214C3.3128 6.94214 2.69237 6.6489 3.00259 6.25792C3.3128 5.86694 3.62303 5.86694 3.62303 5.86694L5.58776 6.64886V5.86694L3.00259 4.20529C3.00259 4.20529 2.64065 3.96092 3.3128 3.17899C3.98496 2.39706 4.24347 2.93463 4.24347 2.93463L5.58776 3.96092V2.20155C5.58776 2.20155 5.58776 1.76173 6.57012 1.76172C7.55248 1.76171 7.60419 2.4948 7.60419 2.4948V4.40079C7.60419 4.40079 8.34956 3.34033 9.10359 3.17899C9.45806 3.10315 10.0342 3.17899 10.0342 3.17899" stroke="black"/>
</svg>
