<svg width="21" height="27" viewBox="0 0 21 27" fill="none" xmlns="http://www.w3.org/2000/svg">
<path d="M3.16798 1.10685H16.5103C18.1671 1.10685 19.5103 2.45 19.5103 4.10685V23.1854M3.16798 1.10685C1.30108 1.04573 0.725827 1.33416 0.569945 2.43398V25.1157M3.16798 1.10685V23.1854M0.569945 25.1157C0.557945 26.2885 1.1956 26.5352 3.16798 26.4428H17.8815C18.781 26.4428 19.5103 25.7136 19.5103 24.8141V24.8141M0.569945 25.1157C0.47237 23.5419 1.07 23.1222 3.16798 23.1854M3.16798 23.1854H19.5103M19.5103 23.1854V24.8141M19.5103 24.8141H13.436" stroke="black"/>
<path d="M12.2299 19.0883C12.7392 19.8975 13.3309 20.8273 14.0773 20.5699C14.8534 20.3023 14.5897 19.1457 14.2944 18.2053C13.9212 17.0168 10.9249 11.881 10.0464 10.3871C9.91171 10.158 9.61475 10.078 9.38084 10.2009C9.35929 10.2122 9.33652 10.2219 9.31326 10.2295C9.08395 10.3048 8.96192 10.5435 9.04182 10.7698C9.60808 12.3734 11.6957 18.2394 12.2299 19.0883Z" stroke="black"/>
<path d="M9.63991 6.53263C10.007 7.3208 10.111 8.10764 10.0063 8.73185C9.90093 9.35966 9.60021 9.76701 9.20859 9.9345C8.81697 10.102 8.29974 10.0445 7.74171 9.70042C7.18688 9.35832 6.64511 8.75871 6.27801 7.97054C5.9109 7.18238 5.80689 6.39554 5.91163 5.77133C6.01699 5.14352 6.3177 4.73617 6.70932 4.56867C7.10094 4.40117 7.61817 4.45868 8.17621 4.80275C8.73104 5.14485 9.2728 5.74447 9.63991 6.53263Z" stroke="black"/>
<path d="M7.66934 18.2585C7.3573 19.1549 7.003 20.1897 7.69176 20.5669C8.40779 20.959 9.15502 20.0163 9.71012 19.1908C10.4117 18.1473 12.5459 12.6283 13.1616 11.0194C13.2559 10.773 13.1266 10.5049 12.8773 10.4141C12.8543 10.4057 12.8318 10.3954 12.8106 10.3834C12.6021 10.2651 12.3335 10.3307 12.2059 10.5354C11.3007 11.988 7.99672 17.318 7.66934 18.2585Z" stroke="black"/>
<path d="M13.3141 9.94319L12.7706 9.5868C12.3247 9.29448 12.1862 8.7041 12.4556 8.24453L14.553 4.66682M13.3141 9.94319L15.939 5.4955M13.3141 9.94319L13.8123 10.2423C14.2888 10.5284 14.9068 10.3715 15.1886 9.89285L17.2982 6.30875" stroke="black" stroke-linecap="round"/>
</svg>
