<svg width="21" height="27" viewBox="0 0 21 27" fill="none" xmlns="http://www.w3.org/2000/svg">
<path d="M3.16798 0.556193H16.5103C18.1671 0.556193 19.5103 1.89934 19.5103 3.55619V22.6347M3.16798 0.556193C1.30108 0.495071 0.725827 0.783504 0.569945 1.88332V24.5651M3.16798 0.556193V22.6347M0.569945 24.5651C0.557945 25.7379 1.1956 25.9846 3.16798 25.8922H17.8815C18.781 25.8922 19.5103 25.163 19.5103 24.2634V24.2634M0.569945 24.5651C0.47237 22.9913 1.07 22.5716 3.16798 22.6347M3.16798 22.6347H19.5103M19.5103 22.6347V24.2634M19.5103 24.2634H13.436" stroke="#6DC47E"/>
<path d="M12.2299 18.5376C12.7392 19.3469 13.3309 20.2766 14.0773 20.0192C14.8534 19.7516 14.5897 18.5951 14.2944 17.6546C13.9212 16.4661 10.9249 11.3303 10.0464 9.8364C9.91171 9.60739 9.61475 9.52736 9.38084 9.65023C9.35929 9.66155 9.33652 9.67121 9.31326 9.67885C9.08395 9.75414 8.96192 9.99282 9.04182 10.2191C9.60808 11.8227 11.6957 17.6888 12.2299 18.5376Z" stroke="#6DC47E"/>
<path d="M9.63991 5.98197C10.007 6.77014 10.111 7.55698 10.0063 8.18119C9.90093 8.809 9.60021 9.21635 9.20859 9.38384C8.81697 9.55134 8.29974 9.49384 7.74171 9.14976C7.18688 8.80766 6.64511 8.20805 6.27801 7.41988C5.9109 6.63172 5.80689 5.84488 5.91163 5.22067C6.01699 4.59286 6.3177 4.18551 6.70932 4.01801C7.10094 3.85052 7.61817 3.90802 8.17621 4.25209C8.73104 4.5942 9.2728 5.19381 9.63991 5.98197Z" stroke="#6DC47E"/>
<path d="M7.66934 17.7078C7.3573 18.6043 7.003 19.639 7.69176 20.0162C8.40779 20.4084 9.15502 19.4657 9.71012 18.6401C10.4117 17.5966 12.5459 12.0777 13.1616 10.4687C13.2559 10.2224 13.1266 9.95425 12.8773 9.86346C12.8543 9.85508 12.8318 9.84473 12.8106 9.83272C12.6021 9.7144 12.3335 9.78006 12.2059 9.98477C11.3007 11.4373 7.99672 16.7673 7.66934 17.7078Z" stroke="#6DC47E"/>
<path d="M13.3141 9.39253L12.7706 9.03614C12.3247 8.74382 12.1862 8.15345 12.4556 7.69387L14.553 4.11616M13.3141 9.39253L15.939 4.94484M13.3141 9.39253L13.8123 9.69165C14.2888 9.97774 14.9068 9.8208 15.1886 9.34219L17.2982 5.75809" stroke="#6DC47E" stroke-linecap="round"/>
</svg>
