<svg width="28" height="27" viewBox="0 0 28 27" fill="none" xmlns="http://www.w3.org/2000/svg">
<path d="M16.7537 17.1659L14.52 15.1704C14.0736 14.7716 14.0695 14.0695 14.5019 13.6555C14.5504 13.609 14.5945 13.5567 14.6317 13.5007C14.9422 13.0349 15.5935 12.9526 16.0102 13.3265L18.3286 15.4071C18.898 15.9181 18.8383 16.8275 18.207 17.2597C17.7587 17.5666 17.1588 17.5279 16.7537 17.1659Z" stroke="black"/>
<path d="M16.4408 8.26971C16.4408 12.5117 13.0441 15.9403 8.86653 15.9403C4.68893 15.9403 1.29224 12.5117 1.29224 8.26971C1.29224 4.02776 4.68893 0.599121 8.86653 0.599121C13.0441 0.599121 16.4408 4.02776 16.4408 8.26971Z" stroke="black"/>
<path d="M14.3995 8.26975C14.3995 11.3877 11.9147 13.9014 8.86658 13.9014C5.81843 13.9014 3.33362 11.3877 3.33362 8.26975C3.33362 5.15177 5.81843 2.63806 8.86658 2.63806C11.9147 2.63806 14.3995 5.15177 14.3995 8.26975Z" stroke="black"/>
<path d="M26.5806 22.1279L21.3625 17.057C20.5398 16.2575 19.2216 16.288 18.4368 17.1246C17.6417 17.972 17.7087 19.31 18.5843 20.0739L24.0673 24.8572C24.8222 25.5157 25.9633 25.4563 26.6458 24.7231C27.3334 23.9843 27.3045 22.8313 26.5806 22.1279Z" stroke="black"/>
</svg>
