<svg width="28" height="27" viewBox="0 0 28 27" fill="none" xmlns="http://www.w3.org/2000/svg">
<path d="M16.7537 17.6153L14.52 15.6197C14.0736 15.2209 14.0695 14.5188 14.5019 14.1048C14.5504 14.0584 14.5945 14.006 14.6317 13.9501C14.9422 13.4843 15.5935 13.4019 16.0102 13.7758L18.3286 15.8564C18.898 16.3674 18.8383 17.2769 18.207 17.7091C17.7587 18.0159 17.1588 17.9772 16.7537 17.6153Z" stroke="#6DC47E"/>
<path d="M16.4408 8.71905C16.4408 12.961 13.0441 16.3896 8.86653 16.3896C4.68893 16.3896 1.29224 12.961 1.29224 8.71905C1.29224 4.4771 4.68893 1.04846 8.86653 1.04846C13.0441 1.04846 16.4408 4.4771 16.4408 8.71905Z" stroke="#6DC47E"/>
<path d="M14.3995 8.71909C14.3995 11.8371 11.9147 14.3508 8.86658 14.3508C5.81843 14.3508 3.33362 11.8371 3.33362 8.71909C3.33362 5.60111 5.81843 3.0874 8.86658 3.0874C11.9147 3.0874 14.3995 5.60111 14.3995 8.71909Z" stroke="#6DC47E"/>
<path d="M26.5806 22.5772L21.3625 17.5063C20.5398 16.7069 19.2216 16.7374 18.4368 17.5739C17.6417 18.4214 17.7087 19.7594 18.5843 20.5232L24.0673 25.3065C24.8222 25.965 25.9633 25.9057 26.6458 25.1724C27.3334 24.4336 27.3045 23.2807 26.5806 22.5772Z" stroke="#6DC47E"/>
</svg>
